<svg  viewBox="0 0 145 26" xmlns="http://www.w3.org/2000/svg">
<g clip-path="url(#clip0_322_12122)">
<path d="M19.2384 17.5399C19.2384 19.6906 18.4759 21.4618 17.0144 22.7269C15.4893 23.992 13.5195 24.6878 11.0413 24.6878H0.683594V0.27124H10.3423C15.2352 0.27124 18.4759 2.92796 18.4759 7.22933C18.4759 9.31675 17.7134 10.8981 16.1883 12.1C18.2217 13.3018 19.2384 15.073 19.2384 17.5399ZM6.97444 5.83771V9.69628H10.2152C11.359 9.69628 12.185 9.00047 12.185 7.79862C12.185 6.66003 11.359 5.90096 10.2152 5.90096H6.97444V5.83771ZM10.8506 19.0581C12.1215 19.0581 13.0111 18.299 13.0111 17.0339C13.0111 15.7688 12.1215 14.9465 10.8506 14.9465H6.97444V19.0581H10.8506Z" />
<path d="M27.0543 18.1093C27.6262 19.5642 28.9606 20.26 30.994 20.26C32.2649 20.26 33.2816 19.8172 34.1712 19.0582L38.3651 21.9679C36.6495 24.1186 34.1077 25.1939 30.8034 25.1939C27.8169 25.1939 25.4657 24.3083 23.6229 22.6005C21.8437 20.8293 20.9541 18.6786 20.9541 16.0219C20.9541 13.4284 21.8437 11.2145 23.5594 9.44335C25.3386 7.6722 27.5627 6.78662 30.2315 6.78662C32.8368 6.78662 34.9973 7.6722 36.713 9.38009C38.4287 11.1512 39.2548 13.3019 39.2548 15.9586C39.2548 16.7177 39.1912 17.4768 39.0006 18.1093H27.0543ZM33.7264 14.061C33.2816 12.4163 32.1378 11.594 30.4222 11.594C28.6429 11.594 27.4991 12.4163 26.9908 14.061H33.7264Z" />
<path d="M53.3614 12.7958H49.7394V17.8562C49.7394 19.3744 50.7561 19.6274 53.3614 19.4376V24.6878C49.8665 25.1306 47.4518 24.8143 45.9903 23.739C44.5924 22.6636 43.8934 20.766 43.8934 17.9827V12.7958H41.2881V7.22933H43.8934V4.06656L49.7394 2.29541V7.22933H53.3614V12.7958Z" />
<path d="M75.1574 17.5399C75.1574 19.6906 74.3949 21.4618 72.9334 22.7269C71.4083 23.992 69.4385 24.6878 66.9603 24.6878H56.5391V0.27124H66.1977C71.0906 0.27124 74.2678 2.92796 74.2678 7.22933C74.2678 9.31675 73.5053 10.8981 71.9802 12.1C74.1407 13.3018 75.1574 15.073 75.1574 17.5399ZM62.8299 5.83771V9.69628H66.0706C67.2144 9.69628 68.0405 9.00047 68.0405 7.79862C68.0405 6.66003 67.2144 5.90096 66.0706 5.90096H62.8299V5.83771ZM66.7061 19.0581C67.977 19.0581 68.8666 18.299 68.8666 17.0339C68.8666 15.7688 67.977 14.9465 66.7061 14.9465H62.8299V19.0581H66.7061Z" />
<path d="M79.6689 22.5372C77.8261 20.7661 76.9365 18.5521 76.9365 15.9586C76.9365 13.3652 77.8261 11.2145 79.6689 9.44335C81.5117 7.6722 83.6722 6.78662 86.2775 6.78662C88.8828 6.78662 91.1068 7.6722 92.8861 9.44335C94.7288 11.2145 95.6184 13.3652 95.6184 15.9586C95.6184 18.5521 94.7288 20.7661 92.8861 22.5372C91.1068 24.3084 88.8828 25.1939 86.2775 25.1939C83.6722 25.1939 81.5117 24.3084 79.6689 22.5372ZM89.836 15.9586C89.836 13.808 88.3744 12.3531 86.2775 12.3531C84.3076 12.3531 82.7826 13.8712 82.7826 15.9586C82.7826 18.1093 84.3076 19.5642 86.2775 19.5642C88.3744 19.6275 89.836 18.1093 89.836 15.9586Z" />
<path d="M100.13 22.5372C98.2871 20.7661 97.3975 18.5521 97.3975 15.9586C97.3975 13.3652 98.2871 11.2145 100.13 9.44335C101.973 7.6722 104.133 6.78662 106.738 6.78662C109.344 6.78662 111.568 7.6722 113.347 9.44335C115.19 11.2145 116.079 13.3652 116.079 15.9586C116.079 18.5521 115.19 20.7661 113.347 22.5372C111.568 24.3084 109.344 25.1939 106.738 25.1939C104.133 25.1939 101.909 24.3084 100.13 22.5372ZM110.233 15.9586C110.233 13.808 108.772 12.3531 106.675 12.3531C104.705 12.3531 103.18 13.8712 103.18 15.9586C103.18 18.1093 104.705 19.5642 106.675 19.5642C108.772 19.6275 110.233 18.1093 110.233 15.9586Z" />
<path d="M144.801 13.9975V24.6877H138.955V14.6933C138.955 13.0487 138.192 12.2264 136.794 12.2264C135.206 12.2264 134.38 13.365 134.38 15.1361V24.6877H128.534V14.6933C128.534 13.0487 127.771 12.2264 126.31 12.2264C124.721 12.2264 123.895 13.365 123.895 15.1361V24.6877H118.049V7.22919H123.895V8.87383C124.975 7.41895 126.564 6.72314 128.597 6.72314C130.567 6.72314 132.092 7.48221 133.109 8.93708C134.316 7.41895 136.032 6.72314 138.192 6.72314C142.259 6.7864 144.801 9.50638 144.801 13.9975Z" />
</g>
<defs>
<clipPath id="clip0_322_12122">
<rect width="144.118" height="25.1551"  transform="translate(0.683594 0.155029)"/>
</clipPath>
</defs>
</svg>
